<mxfile host="app.diagrams.net" modified="2024-01-24T12:04:55.814Z" agent="Mozilla/5.0 (Macintosh; Intel Mac OS X 10_15_7) AppleWebKit/537.36 (KHTML, like Gecko) Chrome/120.0.0.0 Whale/3.24.223.18 Safari/537.36" version="22.1.21" etag="RXVKzD4wTw8iC3bJ0w-P" type="github">
  <diagram name="페이지-1" id="mkhhxJsGzN1-1RJD6tzv">
    <mxGraphModel>
      <root>
        <mxCell id="0" />
        <mxCell id="1" parent="0" />
      </root>
    </mxGraphModel>
  </diagram>
</mxfile>
